<?xml version="1.0" standalone="no"?>
<!DOCTYPE svg PUBLIC "-//W3C//DTD SVG 20010904//EN"
 "http://www.w3.org/TR/2001/REC-SVG-20010904/DTD/svg10.dtd">
<svg version="1.0" xmlns="http://www.w3.org/2000/svg"
 width="752.000000pt" height="752.000000pt" viewBox="0 0 752.000000 752.000000"
 preserveAspectRatio="xMidYMid meet">

<g transform="translate(0.000000,752.000000) scale(0.100000,-0.100000)"
fill="#778899" stroke="#0BA551">
<path d="M2001 5310 c-88 -19 -173 -89 -212 -174 -23 -51 -25 -157 -4 -216 8
-23 15 -44 15 -46 0 -2 -31 -4 -70 -4 -114 0 -110 10 -110 -293 0 -252 0 -254
23 -275 18 -17 36 -22 75 -22 l52 0 0 -498 c0 -494 0 -499 21 -518 19 -17 42
-20 215 -24 l194 -5 -71 -55 c-122 -95 -233 -242 -292 -391 -56 -141 -60 -167
-65 -436 -3 -244 -3 -252 17 -272 16 -16 34 -21 76 -21 51 0 55 -2 61 -28 15
-69 38 -125 74 -180 21 -33 43 -63 49 -66 31 -19 1 -26 -117 -26 -112 0 -131
-2 -145 -18 -23 -25 -22 -85 1 -105 17 -16 174 -17 2050 -17 l2031 0 20 26
c26 34 26 54 0 88 -20 26 -22 26 -150 26 l-129 0 44 60 c45 60 83 146 93 207
6 33 6 33 60 33 45 0 58 4 80 26 24 24 25 30 20 98 -14 165 -79 300 -202 423
-120 119 -245 175 -427 192 l-72 6 -83 490 c-45 270 -82 502 -82 518 l-1 27
193 0 c184 0 195 1 213 21 18 20 19 39 19 271 l0 250 -28 24 -28 24 -465 0
-465 0 -24 -25 c-32 -31 -32 -69 0 -100 23 -24 30 -25 150 -25 l127 0 -37 -42
c-19 -23 -47 -66 -61 -94 -51 -104 -54 -133 -54 -509 0 -389 -6 -442 -61 -554
-40 -80 -133 -175 -215 -218 -90 -48 -168 -63 -326 -63 l-138 0 0 120 c0 65
-5 143 -11 172 -20 93 -72 176 -141 224 l-36 26 19 41 c37 82 18 168 -51 238
-49 49 -102 69 -184 69 l-46 0 0 295 0 295 49 0 c34 0 56 6 75 21 l26 20 0
253 c0 251 0 253 -23 274 -19 18 -35 22 -90 22 -37 0 -67 4 -67 9 0 5 7 25 15
44 20 47 19 141 -1 200 -21 63 -83 130 -152 164 -52 26 -66 28 -167 28 -202
-1 -350 -73 -458 -225 l-18 -25 -22 30 c-71 96 -162 163 -265 195 -73 23 -227
33 -291 20z m274 -170 c95 -37 186 -138 215 -241 l9 -29 -229 0 c-242 0 -267
4 -313 48 -74 71 -46 199 53 241 42 18 197 6 265 -19z m902 4 c86 -65 86 -183
0 -248 -27 -20 -42 -21 -274 -24 l-245 -3 7 23 c28 92 93 179 170 223 97 57
283 73 342 29z m-967 -569 l0 -145 -220 0 -220 0 0 145 0 145 220 0 220 0 0
-145z m590 0 l0 -145 -220 0 -220 0 0 145 0 145 220 0 220 0 0 -145z m590 0
l0 -145 -220 0 -220 0 0 145 0 145 220 0 220 0 0 -145z m-1180 -495 c0 -187 1
-201 20 -220 33 -33 72 -24 215 47 l135 68 135 -68 c150 -74 183 -81 214 -41
20 25 21 40 21 220 l0 194 150 0 150 0 0 -295 0 -295 -424 0 c-473 0 -480 -1
-548 -67 -51 -50 -72 -108 -65 -178 l6 -55 -155 0 -154 0 0 445 0 445 150 0
150 0 0 -200z m590 75 l0 -125 -100 50 c-55 27 -109 50 -120 50 -11 0 -65 -23
-120 -50 l-100 -50 0 125 0 125 220 0 220 0 0 -125z m2518 -22 l-3 -148 -287
-3 -288 -2 0 22 c1 64 85 177 169 226 69 40 124 51 274 51 l138 1 -3 -147z
m-346 -818 c48 -286 87 -525 87 -531 1 -6 -25 -21 -58 -34 -193 -72 -365 -274
-403 -473 l-13 -67 -128 0 c-122 0 -129 -1 -152 -25 -30 -29 -32 -64 -6 -96
19 -24 24 -24 227 -29 l208 -5 11 -50 c14 -64 48 -134 92 -192 19 -25 33 -47
30 -49 -2 -2 -468 -3 -1036 -2 l-1033 3 32 40 c41 51 96 164 105 216 l7 39
420 0 c276 0 426 4 439 11 48 25 43 110 -8 130 -13 5 -110 9 -214 9 l-191 0
34 40 c193 225 140 591 -108 756 -101 66 -177 86 -349 92 -82 2 -189 -1 -237
-6 -315 -39 -560 -248 -643 -548 -9 -33 -19 -119 -22 -196 l-6 -138 -75 0 -75
0 6 173 c7 203 20 263 87 402 103 212 271 355 500 427 74 23 79 23 561 23
l485 0 42 -27 c22 -15 54 -49 69 -75 28 -47 28 -51 33 -246 7 -262 -17 -241
270 -234 149 3 231 9 267 20 234 68 406 238 474 467 20 68 22 104 26 388 l5
313 76 -3 76 -3 88 -520z m-1458 204 c34 -27 35 -71 1 -104 l-24 -25 -539 0
c-530 0 -540 0 -566 21 -33 26 -35 73 -4 106 l21 23 542 0 c533 0 543 0 569
-21z m-399 -584 c115 -30 212 -117 255 -232 31 -83 25 -205 -14 -283 -37 -75
-106 -143 -180 -177 l-61 -28 -454 -3 -453 -3 4 133 c4 111 9 145 31 207 69
194 237 343 437 385 92 20 358 20 435 1z m2260 -300 c92 -24 169 -71 239 -146
68 -72 120 -166 132 -237 l7 -42 -511 0 -511 0 6 33 c34 180 189 341 374 391
72 19 191 20 264 1z m-2585 -587 c0 -38 -61 -137 -113 -185 -104 -95 -249
-123 -379 -73 -100 37 -192 140 -223 248 l-6 22 360 0 c282 0 361 -3 361 -12z
m2806 -20 c-10 -49 -66 -136 -111 -173 -214 -174 -523 -80 -600 183 l-6 22
362 0 362 0 -7 -32z"/>
<path d="M4016 2189 c-52 -41 -22 -129 44 -129 35 0 70 38 70 77 0 34 -38 73
-70 73 -10 0 -29 -9 -44 -21z"/>
</g>
</svg>
