<svg xmlns="http://www.w3.org/2000/svg" width="66" height="64" viewBox="0 0 66 64" fill="none"><path d="M2.93078 48.3198C3.44424 50.7509 4.74363 52.7874 6.60688 54.4614H51.3646C52.1277 53.3549 52.574 52.0649 52.574 50.5292C52.574 49.7542 52.4924 48.9911 52.3365 48.2459C52.1721 47.4579 52.1277 46.6602 52.1638 45.8637L44.2825 38.0326C45.8962 40.3707 48.0065 43.0761 47.7078 45.7588C47.3634 48.8469 44.2044 51.2016 39.9201 46.7806C36.2223 42.9652 34.4755 39.7973 33.9333 37.1873C32.5152 36.6566 31.4953 35.5728 30.8942 35.0614C25.4568 30.4293 20.4586 29.6507 16.3661 30.9671C15.8238 30.4901 15.3091 29.9787 14.8412 29.4159C14.2893 28.7507 13.519 28.3714 12.7151 28.2832C6.96814 29.2561 9.36419 33.9025 9.36419 33.9025C9.67247 34.2745 9.96169 34.6596 10.2401 35.0531C6.77121 38.8934 2.08853 44.3327 2.93078 48.3198Z" fill="#F4C44E"></path><path d="M14.7968 8.73039C26.5103 -2.91013 45.5015 -2.91013 57.2149 8.73039C68.9284 20.3709 68.9284 39.2439 57.2149 50.8844L14.7968 8.73039Z" fill="#E6E6E6"></path><path d="M60.0016 64H2.41241L0.1736 58.0659C-0.484988 56.3216 0.811953 54.4616 2.6859 54.4616H59.728C61.6021 54.4616 62.899 56.3216 62.2403 58.0659L60.0016 64Z" fill="#E6E6E6"></path><path d="M1.49993 21.9453C1.85384 21.5136 2.30737 21.2561 2.78733 21.15C3.08724 21.0833 3.32722 20.8853 3.45082 20.6063C3.64762 20.1581 3.98825 19.7646 4.48265 19.5023C5.36214 19.0349 6.48986 19.1911 7.20618 19.8838C7.77494 20.4334 7.99443 21.1774 7.89248 21.8797C7.77726 22.6726 7.93334 23.4798 8.44551 24.0986L12.0436 28.4361C9.95717 28.9583 9.16055 30.0338 8.94468 31.0998L5.28416 26.6882C4.77186 26.0706 4.00398 25.7641 3.19769 25.7248C2.48497 25.6914 1.79159 25.3349 1.35725 24.6744C0.81002 23.8446 0.86995 22.7155 1.49993 21.9453Z" fill="#D2D5D7"></path><path d="M12.7154 28.283C13.5181 28.3724 14.2895 28.7504 14.8414 29.4158C17.0166 32.0377 20.07 33.7344 23.4174 34.4306C25.2278 34.8061 26.9243 35.7779 28.1865 37.3148C30.9748 40.7082 30.5944 45.8196 27.3262 48.7598C23.7521 51.9742 18.2451 51.5439 15.2132 47.8894C14.0819 46.5253 13.4603 44.911 13.326 43.274C13.044 39.8235 11.5792 36.5733 9.36316 33.9025C9.36316 33.9025 6.9684 29.2561 12.7154 28.283Z" fill="#DC9628"></path><path d="M36.0905 29.8913C33.1174 32.9281 31.6381 38.2339 39.9202 46.7816C44.2046 51.2027 47.3637 48.8466 47.7068 45.7598C48.0055 43.0759 45.8963 40.3706 44.2826 38.0325L36.0905 29.8913Z" fill="#DC9628"></path><path d="M57.2154 8.7304C58.3024 9.81062 59.2886 10.954 60.174 12.1487C60.6348 11.9234 61.0739 11.6408 61.4578 11.2592C63.3319 9.39679 63.3319 6.37795 61.4578 4.51427C59.5826 2.65186 56.5447 2.65186 54.6706 4.51427C54.2867 4.89582 54.0024 5.33218 53.7756 5.79007C54.9778 6.6701 56.1284 7.65017 57.2154 8.7304Z" fill="#AAA7A5"></path><path d="M53.8217 13.2945C53.5146 13.2945 53.2074 13.1777 52.9734 12.9451C51.698 11.6776 50.293 10.5581 48.797 9.61978C48.2367 9.26807 48.0699 8.53123 48.4239 7.97434C48.7766 7.41758 49.5205 7.253 50.0783 7.60355C51.7244 8.63728 53.2697 9.86659 54.6699 11.2592C55.139 11.7254 55.139 12.4789 54.6699 12.9451C54.436 13.1777 54.1288 13.2945 53.8217 13.2945Z" fill="#AAA7A5"></path><path d="M22.4336 10.7655C22.0533 10.7655 21.679 10.5867 21.445 10.2503C21.0682 9.70905 21.205 8.96619 21.7498 8.59297C28.0306 4.27681 35.9755 2.77097 43.0062 4.55705C43.648 4.72035 44.0355 5.37022 43.8712 6.00806C43.7056 6.6459 43.053 7.02988 42.4111 6.86658C36.0463 5.24509 28.8321 6.62451 23.1151 10.5532C22.9063 10.6963 22.6688 10.7655 22.4336 10.7655Z" fill="#AAA7A5"></path></svg>