<svg xmlns="http://www.w3.org/2000/svg" width="63" height="64" viewBox="0 0 63 64" fill="none"><path d="M46.707 13.0173C46.1063 13.0173 45.6207 12.5313 45.6207 11.9326V5.42414C45.6207 4.82539 46.1063 4.3394 46.707 4.3394C47.3076 4.3394 47.7932 4.82539 47.7932 5.42414V11.9326C47.7932 12.5313 47.3076 13.0173 46.707 13.0173Z" fill="#25B99A"></path><path d="M46.708 6.50888C46.33 6.50888 45.964 6.3125 45.7641 5.96213C45.4654 5.44251 45.6468 4.77977 46.1681 4.48252L53.7716 0.143695C54.2908 -0.154551 54.9556 0.0265717 55.2532 0.547191C55.5519 1.06681 55.3705 1.72955 54.8492 2.0268L47.2457 6.36575C47.0762 6.46338 46.8905 6.50888 46.708 6.50888Z" fill="#25B99A"></path><path d="M61.9138 18.441H31.5C30.9004 18.441 30.4138 17.955 30.4138 17.3563V13.0173C30.4138 12.4186 30.9004 11.9326 31.5 11.9326H61.9138C62.5133 11.9326 63 12.4186 63 13.0173V17.3563C63 17.955 62.5133 18.441 61.9138 18.441Z" fill="#CAD3DB"></path><path d="M38.0173 63.9998H5.43106C4.23082 63.9998 3.25863 63.0289 3.25863 61.8303V57.4913H40.1897V61.8303C40.1897 63.029 39.2175 63.9998 38.0173 63.9998Z" fill="#D18F1A"></path><path d="M41.2183 57.4915H2.23C0.998218 57.4915 0 56.4946 0 55.2645V53.21C0 51.9799 0.998218 50.983 2.23 50.983H41.2183C42.4501 50.983 43.4483 51.9799 43.4483 53.21V55.2645C43.4483 56.4945 42.4501 57.4915 41.2183 57.4915Z" fill="#8E4A27"></path><path d="M3.4534 41.2204C1.85011 41.2204 0.365367 42.2899 0.0600808 43.8606C-0.336327 45.9021 1.29624 47.6257 3.25901 47.7288C5.13816 47.8276 6.51764 46.3294 6.51764 44.4746H11.9487C11.9487 46.2719 13.4075 47.7288 15.2073 47.7288C17.0071 47.7288 18.466 46.2719 18.466 44.4746H24.9832C24.9832 46.2719 26.4421 47.7288 28.2419 47.7288C30.0417 47.7288 31.5005 46.2719 31.5005 44.4746H36.9316C36.9316 46.3294 38.311 47.8276 40.1902 47.7288C41.9521 47.6366 43.4488 46.2362 43.4488 44.4746C43.4488 42.7791 41.888 41.2204 40.1902 41.2204H3.4534Z" fill="#8E4A27"></path><path d="M3.25826 41.2204H40.1892V36.8814H3.25826V41.2204Z" fill="#76A944"></path><path d="M36.9311 44.4746H31.5C31.5 46.2719 30.0412 47.7288 28.2414 47.7288C26.4416 47.7288 24.9827 46.2719 24.9827 44.4746H18.4655C18.4655 46.2719 17.0066 47.7288 15.2068 47.7288C13.407 47.7288 11.9482 46.2719 11.9482 44.4746H6.51714C6.51714 46.3294 5.13766 47.8276 3.25851 47.7288V50.983H40.1896V47.7288C38.3105 47.8276 36.9311 46.3294 36.9311 44.4746Z" fill="#F9EA7F"></path><path d="M21.7241 23.8647C8.68956 23.8647 0 28.3393 0 34.7121V35.7838C0 36.3902 0.492037 36.8815 1.09923 36.8815H42.349C42.9562 36.8815 43.4482 36.3902 43.4482 35.7838V34.7121C43.4483 28.3391 34.7586 23.8647 21.7241 23.8647Z" fill="#D18F1A"></path><path d="M31.5 18.441L31.8095 24.9321C39.0371 26.6178 43.4482 30.18 43.4482 34.7121V35.7838C43.4482 36.3902 42.9562 36.8815 42.349 36.8815H40.1896V41.2205C41.8873 41.2205 43.4482 42.7792 43.4482 44.4747C43.4482 46.2374 41.9514 47.6367 40.1896 47.7289V50.9831H41.2182C42.45 50.9831 43.4482 51.98 43.4482 53.2101V55.2646C43.4482 56.4947 42.45 57.4916 41.2182 57.4916H40.1896V61.8305C40.1896 63.028 39.2174 64 38.0171 64H57.6721C58.831 64 59.7848 63.0921 59.8401 61.9358L61.9137 18.4412H31.5V18.441Z" fill="#E6EEF3"></path><path d="M46.707 28.2035C44.7637 28.2035 42.9748 28.8489 41.5279 29.925C42.7629 31.3416 43.4483 32.9503 43.4483 34.7119V35.7837C43.4483 36.3901 42.9563 36.8814 42.3491 36.8814H40.1897V41.2204C41.8875 41.2204 43.4483 42.7791 43.4483 44.4746C43.4483 44.6211 43.4233 44.761 43.4028 44.902C44.4216 45.3217 45.5361 45.5593 46.707 45.5593C51.5058 45.5593 55.3966 41.6737 55.3966 36.8814C55.3966 32.0891 51.5058 28.2035 46.707 28.2035Z" fill="#25B99A"></path></svg>