<svg xmlns="http://www.w3.org/2000/svg" width="60" height="60" viewBox="0 0 60 60" fill="none"><circle cx="30" cy="30" r="30" fill="#7E9449"></circle><path d="M16 39.9411V37.5933C16.7367 37.5933 17.3361 36.994 17.3361 36.2573V34.4769C17.3361 32.4456 18.9886 30.7931 21.0199 30.7931H21.7251V33.1409H21.0199C20.2832 33.1409 19.6839 33.7402 19.6839 34.4769V36.2573C19.6839 38.2886 18.0313 39.9411 16 39.9411Z" fill="#E79C25"></path><path d="M44.1739 39.9411C42.1426 39.9411 40.4901 38.2886 40.4901 36.2572V34.4769C40.4901 33.7402 39.8907 33.1409 39.154 33.1409H38.4488V30.7931H39.154C41.1853 30.7931 42.8379 32.4457 42.8379 34.4769V36.2573C42.8379 36.9941 43.4372 37.5934 44.1739 37.5934V39.9411Z" fill="#E79C25"></path><path d="M36.2091 20.5942H33.8613V18.1222C33.8613 16.041 32.1681 14.3478 30.087 14.3478C28.0058 14.3478 26.3126 16.041 26.3126 18.1222V20.5942H23.9648V18.1222C23.9648 14.7464 26.7112 12 30.087 12C33.4627 12 36.2091 14.7464 36.2091 18.1222V20.5942Z" fill="#E79C25"></path><path d="M39.6227 48H20.5512V26.0742H21.7251C22.9601 26.0742 23.9648 25.0695 23.9648 23.8346V19.4202H36.2091V23.8345C36.2091 25.0695 37.2138 26.0742 38.4487 26.0742H39.6227L39.6227 48Z" fill="#C0E466"></path><path d="M39.6227 48H30.087L30.0881 19.4202H36.2091V23.8345C36.2091 25.0695 37.2138 26.0742 38.4487 26.0742H39.6227L39.6227 48Z" fill="#95BB40"></path><path d="M34.8293 42.4923H25.3447V35.0422H34.8292L34.8293 42.4923Z" fill="#F7F7F8"></path><path d="M34.8293 42.4923H30.0881V35.0422H34.8292L34.8293 42.4923Z" fill="#D7D7D7"></path></svg>