<svg xmlns="http://www.w3.org/2000/svg" width="73" height="64" viewBox="0 0 73 64" fill="none"><path d="M13.6875 47.5429C16.5349 47.5429 19.043 48.9949 20.5163 51.2H36.5H47.45V21.9429V16.4571H31.9375H29.2V27.4286L23.725 21.9429L18.25 27.4286V16.4571H15.5125H0V36.5714H5.475V42.0571V47.5429H0V51.2H6.85872C8.33204 48.9949 10.8401 47.5429 13.6875 47.5429Z" fill="#CCF8F3"></path><path d="M62.05 21.9429H47.45V51.2H52.4837C53.957 48.9949 56.4651 47.5429 59.3125 47.5429C62.1599 47.5429 64.668 48.9949 66.1413 51.2H73V47.5429H69.35L67.525 42.0571H73V38.4L62.05 21.9429ZM52.925 38.4V27.4286H59.1198L66.4198 38.4H52.925Z" fill="#00D7DF"></path><path d="M52.925 27.4286V38.4H66.4198L59.1198 27.4286H52.925Z" fill="white"></path><path d="M20.5163 51.2C21.3899 52.5074 21.9 54.0796 21.9 55.7714C21.9 56.0806 21.8814 56.3853 21.8484 56.6857H36.5V51.2H20.5163Z" fill="#786145"></path><path d="M52.4837 51.2H47.45H36.5V56.6857H51.1516C51.1184 56.3853 51.1 56.0806 51.1 55.7714C51.1 54.0796 51.6101 52.5074 52.4837 51.2Z" fill="#50412E"></path><path d="M10.95 55.7714C10.95 54.2566 12.1757 53.0286 13.6875 53.0286V47.5429C10.8401 47.5429 8.33204 48.9949 6.85872 51.2H0V56.6857H5.52665C5.98071 60.7998 9.46043 64 13.6875 64V58.5143C12.1757 58.5143 10.95 57.2862 10.95 55.7714Z" fill="#786145"></path><path d="M20.5163 51.2C19.043 48.9949 16.5349 47.5429 13.6875 47.5429V53.0286C15.1993 53.0286 16.425 54.2566 16.425 55.7714C16.425 57.2862 15.1993 58.5143 13.6875 58.5143V64C17.9146 64 21.3943 60.7998 21.8484 56.6857C21.8816 56.3853 21.9 56.0806 21.9 55.7714C21.9 54.0796 21.3899 52.5074 20.5163 51.2Z" fill="#50412E"></path><path d="M56.575 55.7714C56.575 54.2566 57.8007 53.0286 59.3125 53.0286V47.5429C56.4651 47.5429 53.957 48.9949 52.4837 51.2C51.6101 52.5074 51.1 54.0796 51.1 55.7714C51.1 56.0806 51.1186 56.3853 51.1516 56.6857C51.6057 60.7998 55.0854 64 59.3125 64V58.5143C57.8007 58.5143 56.575 57.2862 56.575 55.7714Z" fill="#786145"></path><path d="M59.3125 47.5429V53.0286C60.8243 53.0286 62.05 54.2566 62.05 55.7714C62.05 57.2862 60.8243 58.5143 59.3125 58.5143V64C63.5396 64 67.0191 60.7998 67.4734 56.6857H73V51.2H66.1413C64.668 48.9949 62.1599 47.5429 59.3125 47.5429Z" fill="#50412E"></path><path d="M13.6875 58.5143C15.1993 58.5143 16.425 57.2862 16.425 55.7714C16.425 54.2566 15.1993 53.0286 13.6875 53.0286C12.1757 53.0286 10.95 54.2566 10.95 55.7714C10.95 57.2862 12.1757 58.5143 13.6875 58.5143Z" fill="white"></path><path d="M59.3125 58.5143C60.8243 58.5143 62.05 57.2862 62.05 55.7714C62.05 54.2566 60.8243 53.0286 59.3125 53.0286C57.8007 53.0286 56.575 54.2566 56.575 55.7714C56.575 57.2862 57.8007 58.5143 59.3125 58.5143Z" fill="white"></path><path d="M5.475 42.0571H0V47.5429H5.475V42.0571Z" fill="#FF9811"></path><path d="M5.475 36.5714H0V42.0571H5.475V36.5714Z" fill="#00D7DF"></path><path d="M69.35 47.5429H73V42.0571H67.525L69.35 47.5429Z" fill="#FF9811"></path><path d="M31.9375 16.4571C36.4734 16.4571 40.15 12.7731 40.15 8.22857C40.15 3.68402 36.4734 0 31.9375 0C27.4016 0 23.725 3.68402 23.725 8.22857C23.725 3.68402 20.0484 0 15.5125 0C10.9766 0 7.3 3.68402 7.3 8.22857C7.3 12.7731 10.9766 16.4571 15.5125 16.4571H31.9375ZM29.2 8.22857C29.2 6.71616 30.428 5.48571 31.9375 5.48571C33.447 5.48571 34.675 6.71616 34.675 8.22857C34.675 9.74098 33.447 10.9714 31.9375 10.9714H29.2V8.22857ZM12.775 8.22857C12.775 6.71616 14.003 5.48571 15.5125 5.48571C17.022 5.48571 18.25 6.71616 18.25 8.22857V10.9714H15.5125C14.003 10.9714 12.775 9.74098 12.775 8.22857Z" fill="#FFDA44"></path><path d="M18.25 16.4571V27.4286L23.725 21.9429L29.2 27.4286V16.4571H18.25Z" fill="#FF9811"></path></svg>