<svg xmlns="http://www.w3.org/2000/svg" width="64" height="64" viewBox="0 0 64 64" fill="none"><path d="M64 9.73913V13.913H0V9.73913C0 6.66563 2.49162 4.17387 5.56525 4.17387H58.4349C61.5083 4.17387 64 6.66563 64 9.73913Z" fill="#A5A5A5"></path><path d="M49.7391 8.27825V8.41737C49.7391 8.99362 49.2719 9.46087 48.6956 9.46087C48.1194 9.46087 47.6521 8.99362 47.6521 8.41737V8.27825C47.6521 7.702 48.1194 7.23475 48.6956 7.23475C49.2719 7.23475 49.7391 7.702 49.7391 8.27825ZM52.8696 7.23475C52.2934 7.23475 51.8261 7.702 51.8261 8.27825V8.41737C51.8261 8.99362 52.2934 9.46087 52.8696 9.46087C53.4459 9.46087 53.9131 8.99362 53.9131 8.41737V8.27825C53.913 7.702 53.4459 7.23475 52.8696 7.23475ZM57.0435 7.23475C56.4672 7.23475 56 7.702 56 8.27825V8.41737C56 8.99362 56.4672 9.46087 57.0435 9.46087C57.6197 9.46087 58.087 8.99362 58.087 8.41737V8.27825C58.087 7.702 57.6197 7.23475 57.0435 7.23475Z" fill="#777777"></path><path d="M64 12.5218V51.4782C64 54.5517 61.5084 57.0435 58.4347 57.0435H5.56525C2.49162 57.0435 0 54.5517 0 51.4782V12.5218H8.34787V2.78262C8.34787 1.24575 9.59362 0 11.1304 0H22.2607C23.7976 0 25.0434 1.24575 25.0434 2.78262V12.5218H64Z" fill="#FFE6AE"></path><path d="M57.0435 32.6956V48C57.0435 49.5369 55.7978 50.7826 54.2609 50.7826H9.73913C8.20225 50.7826 6.9565 49.5369 6.9565 48V32.6956C6.9565 31.1588 8.20225 29.913 9.73913 29.913H54.2609C55.7978 29.913 57.0435 31.1589 57.0435 32.6956ZM9.73913 24.3479H22.2609C23.7978 24.3479 25.0435 23.1021 25.0435 21.5653C25.0435 20.0284 23.7978 18.7826 22.2609 18.7826H9.73913C8.20225 18.7826 6.9565 20.0284 6.9565 21.5653C6.9565 23.102 8.20225 24.3479 9.73913 24.3479ZM32 24.3479H54.2609C55.7978 24.3479 57.0435 23.1021 57.0435 21.5653C57.0435 20.0284 55.7978 18.7826 54.2609 18.7826H32C30.4631 18.7826 29.2174 20.0284 29.2174 21.5653C29.2174 23.102 30.4631 24.3479 32 24.3479Z" fill="#FFD880"></path><path d="M25.0434 2.78262V12.5218H8.34787V2.78262C8.34787 1.24575 9.59362 0 11.1304 0H22.2607C23.7976 0 25.0434 1.24575 25.0434 2.78262Z" fill="#FCC159"></path><path d="M22.2609 4.86963V7.65225C22.2609 8.42062 21.638 9.0435 20.8696 9.0435H12.5218C11.7534 9.0435 11.1305 8.42062 11.1305 7.65225V4.86963C11.1305 4.10125 11.7534 3.47837 12.5218 3.47837H20.8696C21.638 3.47825 22.2609 4.10113 22.2609 4.86963Z" fill="#FFA522"></path><path d="M57.0435 32.8348V58.4347C57.0435 61.5082 54.5517 64 51.4782 64H34.3545C31.281 64 28.7892 61.5084 28.7892 58.4347V32.8348C28.7892 29.7613 31.281 27.2695 34.3545 27.2695H51.4782C54.5517 27.2696 57.0435 29.7613 57.0435 32.8348Z" fill="#D0F7D6"></path><path d="M41.5033 27.2696L28.7892 54.5349V32.8348C28.7892 29.7613 31.2809 27.2695 34.3545 27.2695L41.5033 27.2696ZM56.2982 30.0544L43.5941 57.2986H34.2416L48.2444 27.2695H44.6208L30.1281 58.3493H28.7892V58.4349C28.7892 61.5084 31.281 64 34.3545 64H51.4782C54.5517 64 57.0435 61.5085 57.0435 58.4349V32.8348C57.0435 31.8215 56.7714 30.8726 56.2982 30.0544Z" fill="#A3CCAA"></path><path d="M57.0435 56.4655V58.4347C57.0435 61.5082 54.5517 64 51.4782 64H34.3545C31.281 64 28.7892 61.5084 28.7892 58.4347V56.4655H57.0435Z" fill="#777777"></path><path d="M45.8435 60.2327C45.8435 60.809 45.3762 61.2762 44.8 61.2762H41.0327C40.4565 61.2762 39.9893 60.809 39.9893 60.2327C39.9893 59.6565 40.4565 59.1893 41.0327 59.1893H44.8C45.3762 59.1893 45.8435 59.6565 45.8435 60.2327Z" fill="#D0F7D6"></path></svg>