<svg xmlns="http://www.w3.org/2000/svg" width="73" height="64" viewBox="0 0 73 64" fill="none"><path d="M64.8627 2.37037H53.0695V24.8889H64.8627V2.37037Z" fill="#680B09"></path><path d="M66.042 0H51.8901V2.37037H66.042V0Z" fill="#C43D27"></path><path d="M71.9386 59.2593H0V64H71.9386V59.2593Z" fill="#207700"></path><path d="M8.25525 48.9481L10.6139 47.763L12.9725 48.9481V61.7481L10.6139 62.9333L8.25525 61.7481V48.9481Z" fill="#207700"></path><path d="M0 48.9481L2.35864 47.763L4.71729 48.9481V61.7481L2.35864 62.9333L0 61.7481V48.9481Z" fill="#207700"></path><path d="M10.6139 53.3333H2.35864V55.7037H10.6139V53.3333Z" fill="#239B02"></path><path d="M64.8627 28.4444H16.5105V61.6296H64.8627V28.4444Z" fill="white"></path><path d="M16.5105 28.4444H64.8627V61.6296" fill="#E8F9FC"></path><path d="M37.7383 59.2593V37.0963C37.7383 36.0296 37.3845 35.5556 36.3231 35.5556H25.3554C24.294 35.5556 23.5864 36.1481 23.5864 37.0963V59.2593H37.7383Z" fill="#FCA12A"></path><path d="M37.7383 48.5926V37.0963C37.7383 36.0296 37.3845 35.5556 36.3231 35.5556H25.3554C24.294 35.5556 23.5864 36.1481 23.5864 37.0963" fill="#E58613"></path><path d="M36.3231 47.5259C36.3231 48.5926 35.4976 49.5407 34.3183 49.5407C33.2569 49.5407 32.3134 48.7111 32.3134 47.5259C32.3134 46.4593 33.1389 45.5111 34.3183 45.5111C35.3796 45.5111 36.3231 46.3407 36.3231 47.5259Z" fill="#DB5435"></path><path d="M35.7334 46.1037C36.559 46.8148 36.441 48.1185 35.7334 48.9481C35.0258 49.7778 33.7286 49.6593 32.9031 48.9481" fill="#C43D27"></path><path d="M50.7108 41.4815H57.7868V37.0963C57.7868 36.0296 56.6074 35.5556 55.546 35.5556H50.7108V41.4815Z" fill="#0E75AF"></path><path d="M49.5315 41.4815V35.5556H44.2246C43.1632 35.5556 42.4556 36.1481 42.4556 37.0963V41.4815H49.5315Z" fill="#1EA4C4"></path><path d="M49.5315 42.6667H42.4556V47.2889C42.4556 48.3556 43.1632 48.5926 44.2246 48.5926H49.5315V42.6667Z" fill="#0E75AF"></path><path d="M50.7108 42.6667V48.5926H55.546C56.6074 48.5926 57.7868 48.3556 57.7868 47.2889V42.6667H50.7108Z" fill="#1EA4C4"></path><path d="M73 28.4444L40.6866 3.08148L8.49111 28.4444H73Z" fill="#C43D27"></path><path d="M73 28.4444L40.6866 3.08148L24.294 28.4444H73Z" fill="#AA1E0F"></path><path d="M17.5719 21.3333H63.9192L60.9709 18.963H20.5202L17.5719 21.3333Z" fill="#C43D27"></path><path d="M28.0678 13.037H53.4233L51.8901 11.8519H29.601L28.0678 13.037Z" fill="#C43D27"></path></svg>