<svg xmlns="http://www.w3.org/2000/svg" width="60" height="60" viewBox="0 0 60 60" fill="none"><circle cx="30" cy="30" r="30" fill="#982604"></circle><path d="M48 48.0008V46.0008C48 44.4095 47.3498 42.8834 46.1924 41.7581C45.0351 40.6329 43.4653 40.0008 41.8286 40.0008H25.3714C23.7347 40.0008 22.1649 40.6329 21.0076 41.7581C19.8502 42.8834 19.2 44.4095 19.2 46.0008V48.0008H48Z" fill="#E1E8ED"></path><path d="M33.6 48.0008L38.7429 40.0008H28.4571L33.6 48.0008Z" fill="#226699"></path><path d="M29.1154 40.0388C29.1154 42.0008 38.0846 42.0008 38.0846 40.0388V36.2898H29.1154V40.0388Z" fill="#D5AB88"></path><path d="M29.1072 37.9738C30.3579 39.3478 31.909 39.7198 33.5959 39.7198C35.2817 39.7198 36.8318 39.3468 38.0835 37.9738V34.4828H29.1062L29.1072 37.9738Z" fill="#CC9B7A"></path><path d="M26.8567 27.9368C26.8567 29.3848 26.1017 30.5588 25.1709 30.5588C24.24 30.5588 23.485 29.3848 23.485 27.9368C23.485 26.4888 24.24 25.3138 25.1709 25.3138C26.1017 25.3128 26.8567 26.4878 26.8567 27.9368ZM43.7139 27.9368C43.7139 29.3848 42.96 30.5588 42.0281 30.5588C41.0973 30.5588 40.3423 29.3848 40.3423 27.9368C40.3423 26.4888 41.0962 25.3138 42.0281 25.3138C42.96 25.3128 43.7139 26.4878 43.7139 27.9368Z" fill="#D5AB88"></path><path d="M24.8335 28.9598C24.8335 23.3708 28.7585 18.8388 33.6 18.8388C38.4415 18.8388 42.3655 23.3708 42.3655 28.9598C42.3655 34.5488 38.4415 39.0808 33.6 39.0808C28.7595 39.0808 24.8335 34.5498 24.8335 28.9598Z" fill="#D5AB88"></path><path d="M33.6 35.8028C30.7673 35.8028 29.8971 35.0978 29.7521 34.9548C29.688 34.8956 29.6364 34.8246 29.6005 34.746C29.5645 34.6675 29.5448 34.5827 29.5425 34.4968C29.5379 34.3231 29.6044 34.1548 29.7274 34.0288C29.8505 33.9028 30.0199 33.8295 30.1985 33.825C30.3772 33.8205 30.5503 33.8852 30.6799 34.0048C30.7334 34.0418 31.4215 34.4918 33.6 34.4918C35.8629 34.4918 36.517 34.0068 36.5232 34.0018C36.5854 33.9419 36.6592 33.8947 36.7404 33.8629C36.8216 33.8312 36.9085 33.8156 36.996 33.817C37.0835 33.8184 37.1698 33.8368 37.2499 33.8711C37.33 33.9054 37.4022 33.9549 37.4623 34.0168C37.5869 34.1437 37.6552 34.3132 37.6525 34.4887C37.6498 34.6641 37.5763 34.8315 37.4479 34.9548C37.3029 35.0978 36.4327 35.8028 33.6 35.8028Z" fill="#C1694F"></path><path d="M33.6 15.4808C39.4094 15.4808 43.0402 19.6488 43.0402 23.1218C43.0402 26.5948 42.3141 27.9848 41.5879 26.5948L40.1355 23.8168C40.1355 23.8168 35.7795 23.8168 34.3272 22.4268C34.3272 22.4268 36.5057 26.5948 32.1487 22.4268C32.1487 22.4268 32.8749 25.2058 28.5178 21.7328C28.5178 21.7328 26.3393 23.1218 25.6131 26.5948C25.4115 27.5588 24.1608 26.5948 24.1608 23.1218C24.1598 19.6488 27.0645 15.4808 33.6 15.4808Z" fill="#963B22"></path><path d="M29.4857 29.0008C28.92 29.0008 28.4571 28.5508 28.4571 28.0008V27.0008C28.4571 26.4508 28.92 26.0008 29.4857 26.0008C30.0514 26.0008 30.5143 26.4508 30.5143 27.0008V28.0008C30.5143 28.5508 30.0514 29.0008 29.4857 29.0008ZM37.7143 29.0008C37.1486 29.0008 36.6857 28.5508 36.6857 28.0008V27.0008C36.6857 26.4508 37.1486 26.0008 37.7143 26.0008C38.28 26.0008 38.7429 26.4508 38.7429 27.0008V28.0008C38.7429 28.5508 38.28 29.0008 37.7143 29.0008Z" fill="#662113"></path><path d="M34.3714 31.7508H32.8286C32.4038 31.7508 32.0571 31.4138 32.0571 31.0008C32.0571 30.5878 32.4038 30.2508 32.8286 30.2508H34.3714C34.7962 30.2508 35.1429 30.5878 35.1429 31.0008C35.1429 31.4138 34.7962 31.7508 34.3714 31.7508Z" fill="#C1694F"></path><path d="M43.0402 24.0008C43.0402 24.0008 40.3433 25.0008 33.6 25.0008C26.8567 25.0008 24.1598 24.0008 24.1598 24.0008V18.0008H43.0392L43.0402 24.0008Z" fill="#CCD6DD"></path><path d="M27.4286 23.2508C27.4286 23.3834 27.3744 23.5106 27.2779 23.6043C27.1815 23.6981 27.0507 23.7508 26.9143 23.7508C26.7779 23.7508 26.6471 23.6981 26.5506 23.6043C26.4542 23.5106 26.4 23.3834 26.4 23.2508V20.2508C26.4 20.1182 26.4542 19.991 26.5506 19.8972C26.6471 19.8035 26.7779 19.7508 26.9143 19.7508C27.0507 19.7508 27.1815 19.8035 27.2779 19.8972C27.3744 19.991 27.4286 20.1182 27.4286 20.2508V23.2508ZM40.8 23.2508C40.8 23.3834 40.7458 23.5106 40.6494 23.6043C40.5529 23.6981 40.4221 23.7508 40.2857 23.7508C40.1493 23.7508 40.0185 23.6981 39.9221 23.6043C39.8256 23.5106 39.7714 23.3834 39.7714 23.2508V20.2508C39.7714 20.1182 39.8256 19.991 39.9221 19.8972C40.0185 19.8035 40.1493 19.7508 40.2857 19.7508C40.4221 19.7508 40.5529 19.8035 40.6494 19.8972C40.7458 19.991 40.8 20.1182 40.8 20.2508V23.2508ZM30.5143 23.6508C30.5143 23.7834 30.4601 23.9106 30.3637 24.0043C30.2672 24.0981 30.1364 24.1508 30 24.1508C29.8636 24.1508 29.7328 24.0981 29.6363 24.0043C29.5399 23.9106 29.4857 23.7834 29.4857 23.6508V20.6508C29.4857 20.5182 29.5399 20.391 29.6363 20.2972C29.7328 20.2035 29.8636 20.1508 30 20.1508C30.1364 20.1508 30.2672 20.2035 30.3637 20.2972C30.4601 20.391 30.5143 20.5182 30.5143 20.6508V23.6508ZM34.1143 23.7508C34.1143 23.8834 34.0601 24.0106 33.9637 24.1043C33.8672 24.1981 33.7364 24.2508 33.6 24.2508C33.4636 24.2508 33.3328 24.1981 33.2363 24.1043C33.1399 24.0106 33.0857 23.8834 33.0857 23.7508V20.7508C33.0857 20.6182 33.1399 20.491 33.2363 20.3972C33.3328 20.3035 33.4636 20.2508 33.6 20.2508C33.7364 20.2508 33.8672 20.3035 33.9637 20.3972C34.0601 20.491 34.1143 20.6182 34.1143 20.7508V23.7508ZM37.7143 23.6508C37.7143 23.7834 37.6601 23.9106 37.5637 24.0043C37.4672 24.0981 37.3364 24.1508 37.2 24.1508C37.0636 24.1508 36.9328 24.0981 36.8363 24.0043C36.7399 23.9106 36.6857 23.7834 36.6857 23.6508V20.6508C36.6857 20.5182 36.7399 20.391 36.8363 20.2972C36.9328 20.2035 37.0636 20.1508 37.2 20.1508C37.3364 20.1508 37.4672 20.2035 37.5637 20.2972C37.6601 20.391 37.7143 20.5182 37.7143 20.6508V23.6508Z" fill="#99AAB5"></path><path d="M40.0286 12.0008C38.8385 12.0008 37.7277 12.3208 36.7711 12.8698C35.8 12.3092 34.6932 12.0092 33.5639 12.0002C32.4345 11.9912 31.3229 12.2737 30.3425 12.8188C29.3767 12.2824 28.2837 12.0005 27.1714 12.0008C23.6208 12.0008 20.7429 14.7988 20.7429 18.2508C20.7429 21.7028 32.3595 21.5008 33.5136 21.5008C34.7037 21.5008 46.4571 21.7028 46.4571 18.2508C46.4571 14.7988 43.5782 12.0008 40.0286 12.0008Z" fill="#E1E8ED"></path><path d="M21.2571 36.7508C21.2571 40.2028 19.1846 42.0008 16.6286 42.0008C14.0726 42.0008 12 40.2028 12 36.7508C12 33.2988 14.0726 29.5008 16.6286 29.5008C19.1846 29.5008 21.2571 33.2988 21.2571 36.7508Z" fill="#99AAB5"></path><path d="M15.6 40.0008H17.6571V48.0008H15.6V40.0008Z" fill="#99AAB5"></path><path d="M21.2571 36.7508C21.2571 40.2028 19.1846 42.0008 16.6286 42.0008C14.0726 42.0008 12 40.2028 12 36.7508C12 33.2988 14.0726 29.5008 16.6286 29.5008C19.1846 29.5008 21.2571 33.2988 21.2571 36.7508Z" fill="#C1694F"></path><path d="M15.6 40.0008H17.6571V48.0008H15.6V40.0008Z" fill="#C1694F"></path><path d="M26.291 16.4898C26.357 16.5037 26.4251 16.5049 26.4916 16.4932C26.558 16.4815 26.6215 16.4572 26.6782 16.4216C26.735 16.386 26.784 16.3399 26.8223 16.2859C26.8607 16.2318 26.8878 16.171 26.9019 16.1068C26.9338 15.9618 27.2455 14.6658 28.2586 13.8948C29.0403 13.2998 30.0576 12.9078 30.323 12.8108C29.9099 12.5862 29.4725 12.4068 29.0187 12.2758C28.5837 12.4858 28.0786 12.7618 27.625 13.1078C26.3537 14.0748 25.9618 15.5998 25.896 15.8958C25.8679 16.0254 25.8936 16.1606 25.9676 16.2719C26.0416 16.3832 26.1578 16.4615 26.291 16.4898ZM38.7953 13.9038C39.8095 14.6758 40.1211 15.9698 40.152 16.1148C40.1806 16.2445 40.2611 16.3578 40.3757 16.4298C40.4324 16.4655 40.4958 16.4899 40.5623 16.5017C40.6287 16.5136 40.6969 16.5126 40.763 16.4988C40.829 16.485 40.8916 16.4587 40.9472 16.4214C41.0028 16.3841 41.0503 16.3365 41.087 16.2813C41.1237 16.2262 41.1488 16.1645 41.161 16.0999C41.1732 16.0353 41.1721 15.969 41.1579 15.9048C41.0921 15.6088 40.7023 14.0848 39.4289 13.1158C39.0084 12.804 38.5574 12.5331 38.0825 12.3068C37.6394 12.442 37.2128 12.6238 36.8102 12.8488C37.1568 12.9808 38.0722 13.3528 38.7953 13.9038Z" fill="#CCD6DD"></path></svg>