<svg xmlns="http://www.w3.org/2000/svg" width="60" height="60" viewBox="0 0 60 60" fill="none"><circle cx="30" cy="30" r="30" fill="#CE7B43"></circle><path d="M45.4276 24.0685C44.0102 24.0685 42.8551 22.9205 42.8551 21.4961C42.8551 22.9134 41.7071 24.0685 40.2827 24.0685C38.8583 24.0685 37.7102 22.9205 37.7102 21.4961C37.7102 22.9134 36.5622 24.0685 35.1378 24.0685C33.7205 24.0685 32.5654 22.9205 32.5654 21.4961C32.5654 22.9134 31.4173 24.0685 29.9929 24.0685C28.5685 24.0685 27.4205 22.9205 27.4205 21.4961C27.4205 22.9134 26.2724 24.0685 24.848 24.0685C23.4236 24.0685 22.2756 22.9205 22.2756 21.4961C22.2756 22.9134 21.1276 24.0685 19.7031 24.0685C18.2787 24.0685 17.1449 22.9205 17.1449 21.4961C17.1449 22.9134 15.9969 24.0685 14.5724 24.0685C14.4945 24.0685 14.4236 24.0543 14.3457 24.0472V44.7969H45.6543V24.0472C45.5764 24.0543 45.5055 24.0685 45.4276 24.0685Z" fill="#FFD15C"></path><path d="M17.1449 18.9307H12L14.3457 12H18.8173L17.1449 18.9307Z" fill="#FF7058"></path><path d="M22.2827 18.9307H17.1449L18.8173 12H23.289L22.2827 18.9307Z" fill="#F2F2F2"></path><path d="M27.4276 18.9307H22.2827L23.289 12H27.7606L27.4276 18.9307Z" fill="#FF7058"></path><path d="M37.7173 18.9307H32.5724L32.2394 12H36.711L37.7173 18.9307Z" fill="#FF7058"></path><path d="M32.5724 18.9307H27.4276L27.7606 12H32.2394L32.5724 18.9307Z" fill="#F2F2F2"></path><path d="M48 18.9307H42.8551L41.1827 12H45.6543L48 18.9307Z" fill="#FF7058"></path><path d="M42.8551 18.9307H37.7173L36.711 12H41.1827L42.8551 18.9307Z" fill="#F2F2F2"></path><path d="M48 44.7968H12V48H48V44.7968Z" fill="#40596B"></path><path d="M40.9559 27.378H19.0441V41.4945H40.9559V27.378Z" fill="white"></path><path d="M39.3614 28.9795H20.6457V39.9H39.3614V28.9795Z" fill="#84DBFF"></path><path d="M12 21.4961C12 22.9134 13.148 24.0685 14.5724 24.0685C15.9969 24.0685 17.1449 22.9205 17.1449 21.4961V18.9307H12V21.4961Z" fill="#F1543F"></path><path d="M22.2827 21.4961C22.2827 22.9134 23.4307 24.0685 24.8551 24.0685C26.2795 24.0685 27.4276 22.9205 27.4276 21.4961V18.9307H22.2827V21.4961Z" fill="#F1543F"></path><path d="M32.5724 21.4961C32.5724 22.9134 33.7205 24.0685 35.1449 24.0685C36.5622 24.0685 37.7173 22.9205 37.7173 21.4961L37.7173 18.9307H32.5724V21.4961Z" fill="#F1543F"></path><path d="M42.8551 18.9307V21.4961C42.8551 22.9134 44.0032 24.0685 45.4276 24.0685C46.852 24.0685 48 22.9205 48 21.4961V18.9307H42.8551Z" fill="#F1543F"></path><path d="M17.1449 21.4961C17.1449 22.9134 18.2929 24.0685 19.7173 24.0685C21.1417 24.0685 22.2898 22.9205 22.2898 21.4961V18.9307L17.1449 18.9307V21.4961Z" fill="#CDD6E0"></path><path d="M27.4276 21.4961C27.4276 22.9134 28.5756 24.0685 30 24.0685C31.4244 24.0685 32.5724 22.9205 32.5724 21.4961V18.9307H27.4276V21.4961Z" fill="#CDD6E0"></path><path d="M37.7173 18.9307L37.7173 21.4961C37.7173 22.9134 38.8654 24.0685 40.2898 24.0685C41.7142 24.0685 42.8622 22.9205 42.8622 21.4961V18.9307L37.7173 18.9307Z" fill="#CDD6E0"></path><path d="M45.4276 24.0685C44.0102 24.0685 42.8551 22.9205 42.8551 21.4961C42.8551 22.9134 41.7071 24.0685 40.2827 24.0685C38.8583 24.0685 37.7102 22.9205 37.7102 21.4961C37.7102 22.9134 36.5622 24.0685 35.1378 24.0685C33.7205 24.0685 32.5654 22.9205 32.5654 21.4961C32.5654 22.9134 31.4173 24.0685 29.9929 24.0685C28.5685 24.0685 27.4205 22.9205 27.4205 21.4961C27.4205 22.9134 26.2724 24.0685 24.848 24.0685C23.4236 24.0685 22.2756 22.9205 22.2756 21.4961C22.2756 22.9134 21.1276 24.0685 19.7031 24.0685C18.2787 24.0685 17.1449 22.9205 17.1449 21.4961C17.1449 22.9134 15.9969 24.0685 14.5724 24.0685C14.4945 24.0685 14.4236 24.0543 14.3457 24.0472V24.8551C14.4236 24.8622 14.4945 24.8693 14.5724 24.8693C15.9898 24.8693 17.1449 23.7213 17.1449 22.3039C17.1449 23.7213 18.3 24.8693 19.7173 24.8693C21.1346 24.8693 22.2898 23.7213 22.2898 22.3039C22.2898 23.7213 23.4449 24.8693 24.8622 24.8693C26.2795 24.8693 27.4346 23.7213 27.4346 22.3039C27.4346 23.7213 28.5827 24.8693 30 24.8693C31.4173 24.8693 32.5724 23.7213 32.5724 22.3039C32.5724 23.7213 33.7276 24.8693 35.1449 24.8693C36.5622 24.8693 37.7173 23.7213 37.7173 22.3039C37.7173 23.7213 38.8724 24.8693 40.2898 24.8693C41.7071 24.8693 42.8622 23.7213 42.8622 22.3039C42.8622 23.7213 44.0102 24.8693 45.4346 24.8693C45.5126 24.8693 45.5835 24.8622 45.6614 24.8551V24.0472C45.5764 24.0543 45.5055 24.0685 45.4276 24.0685Z" fill="#F8B64C"></path></svg>