<svg xmlns="http://www.w3.org/2000/svg" width="60" height="60" viewBox="0 0 60 60" fill="none"><circle cx="30" cy="30" r="30" fill="#DEAE30"></circle><path d="M20.4583 29.0058C20.7738 28.5566 20.9363 28.1264 20.9363 27.7154C20.9363 27.2947 20.8024 26.9506 20.5252 26.6734C20.248 26.3962 19.9039 26.2528 19.4737 26.2528C18.6899 26.2528 17.9442 26.8168 17.2369 27.9352L15 26.616C15.5831 25.7079 16.2236 25.0292 16.9214 24.5608C17.6192 24.0924 18.5082 23.863 19.5789 23.863C20.6591 23.863 21.6054 24.2071 22.418 24.8858C23.2305 25.5741 23.6415 26.5013 23.6415 27.6771C23.6415 28.3176 23.479 28.9389 23.154 29.522C22.829 30.1147 22.2268 30.8603 21.3378 31.778L19.0913 34.1296H24.0239V36.6341H15.2199V34.5597L18.881 30.8125C19.6171 30.0574 20.1429 29.4551 20.4583 29.0058Z" fill="white"></path><path d="M30.6484 31.2331V29.0536H33.325V31.2331H34.7398V33.6421H33.325V36.6245H30.6484V33.6421H25.6298V31.5199L30.0749 24.1402H33.1147L28.88 31.2331H30.6484Z" fill="white"></path><path d="M39.4334 31.4434V36.6245H36.7568V23.3755H39.4334V28.0882C40.2459 27.2661 41.154 26.855 42.1577 26.855C43.1614 26.855 44.0122 27.2087 44.7005 27.9257C45.3887 28.6426 45.7329 29.589 45.7329 30.7839V36.6245H43.0563V31.3765C43.0563 29.9044 42.5114 29.1588 41.4312 29.1588C40.8959 29.1588 40.4275 29.35 40.026 29.7419C39.6341 30.1243 39.4334 30.6978 39.4334 31.4434Z" fill="white"></path><path d="M41.7084 18.7201L39.6341 12L38.6973 13.7685C31.5757 11.7801 24.368 13.2331 19.034 17.0473C25.1041 14.992 31.308 15.8906 36.0494 18.7775L34.9883 20.7945L41.7084 18.7201Z" fill="#FF7058"></path><path d="M19.034 41.2799L21.1083 48L22.0451 46.2315C29.1668 48.2199 36.3744 46.7669 41.7084 42.9527C35.6383 45.008 29.4344 44.1094 24.693 41.2225L25.7541 39.2055L19.034 41.2799Z" fill="#FF7058"></path></svg>